<?xml version="1.0" encoding="UTF-8"?><svg id="Layer_1" xmlns="http://www.w3.org/2000/svg" viewBox="0 0 18.66 17.88"><defs><style>.cls-1{fill:none;stroke:#000;stroke-linecap:round;stroke-linejoin:round;stroke-width:1.55px;}</style></defs><path class="cls-1" d="M7,17.1c.43,0,.78-.35,.78-.78s-.35-.78-.78-.78-.78,.35-.78,.78,.35,.78,.78,.78Z"/><path class="cls-1" d="M15.55,17.1c.43,0,.78-.35,.78-.78s-.35-.78-.78-.78-.78,.35-.78,.78,.35,.78,.78,.78Z"/><path class="cls-1" d="M.78,.78H3.89l2.08,10.41c.07,.36,.27,.68,.55,.91,.28,.23,.64,.35,1,.34h7.56c.36,0,.72-.11,1-.34,.28-.23,.48-.55,.55-.91l1.24-6.52H4.66"/></svg>