<?xml version="1.0" encoding="UTF-8"?><svg id="Layer_1" xmlns="http://www.w3.org/2000/svg" xmlns:xlink="http://www.w3.org/1999/xlink" viewBox="0 0 154.6 68.34"><defs><style>.cls-1{fill:none;}.cls-2{clip-path:url(#clippath);}</style><clipPath id="clippath"><rect class="cls-1" x=".01" width="154.59" height="68.34"/></clipPath></defs><g class="cls-2"><g><path d="M18.38,7.25l-3.66,2.17c-.68-1.19-1.33-1.96-1.95-2.32-.64-.41-1.48-.62-2.5-.62-1.25,0-2.29,.35-3.11,1.06-.83,.7-1.24,1.57-1.24,2.63,0,1.46,1.08,2.63,3.25,3.52l2.98,1.22c2.42,.98,4.2,2.18,5.32,3.59,1.12,1.41,1.68,3.14,1.68,5.19,0,2.75-.92,5.02-2.75,6.81-1.84,1.81-4.13,2.71-6.87,2.71-2.59,0-4.73-.77-6.42-2.3-1.66-1.53-2.7-3.69-3.11-6.48l4.56-1.01c.21,1.75,.57,2.97,1.08,3.64,.93,1.29,2.28,1.93,4.06,1.93,1.41,0,2.57-.47,3.5-1.41,.93-.94,1.39-2.13,1.39-3.58,0-.58-.08-1.11-.24-1.6s-.41-.93-.75-1.33-.78-.79-1.32-1.14c-.54-.35-1.19-.69-1.93-1.02l-2.88-1.2C3.39,15.99,1.34,13.46,1.34,10.13c0-2.24,.86-4.12,2.57-5.63,1.71-1.52,3.85-2.28,6.4-2.28,3.44,0,6.13,1.68,8.07,5.03Z"/><path d="M28.93,17.89v14.78h-4.35v-14.78h-1.86v-4.06h1.86V6.92h4.35v6.9h3.38v4.06h-3.38Z"/><path d="M49.5,13.83h4.37v18.84h-4.37v-1.97c-1.79,1.68-3.72,2.51-5.78,2.51-2.6,0-4.76-.94-6.46-2.82-1.69-1.92-2.53-4.32-2.53-7.19s.84-5.18,2.53-7.06c1.69-1.88,3.8-2.82,6.34-2.82,2.19,0,4.16,.9,5.9,2.71v-2.19h0Zm-10.33,9.35c0,1.81,.48,3.28,1.45,4.41,.99,1.15,2.24,1.72,3.75,1.72,1.61,0,2.91-.55,3.91-1.66,.99-1.15,1.49-2.6,1.49-4.37s-.5-3.22-1.49-4.37c-.99-1.12-2.28-1.68-3.87-1.68-1.5,0-2.75,.57-3.75,1.7-.99,1.15-1.49,2.57-1.49,4.26h0Z"/><path d="M59.37,13.83h4.35v1.68c.8-.84,1.51-1.41,2.13-1.72,.63-.32,1.38-.48,2.24-.48,1.15,0,2.35,.37,3.6,1.12l-1.99,3.98c-.83-.59-1.63-.89-2.42-.89-2.37,0-3.56,1.79-3.56,5.38v9.77h-4.35V13.83Z"/><path d="M87.8,0h4.37V32.67h-4.37v-1.97c-1.71,1.68-3.66,2.51-5.82,2.51-2.58,0-4.72-.94-6.42-2.82-1.69-1.92-2.53-4.32-2.53-7.19s.84-5.16,2.53-7.04c1.68-1.9,3.78-2.84,6.32-2.84,2.2,0,4.18,.9,5.92,2.71V0Zm-10.33,23.19c0,1.81,.48,3.28,1.45,4.41,.99,1.15,2.24,1.72,3.75,1.72,1.61,0,2.91-.55,3.91-1.66,.99-1.15,1.49-2.6,1.49-4.37s-.5-3.22-1.49-4.37c-.99-1.12-2.28-1.68-3.87-1.68-1.5,0-2.75,.57-3.75,1.7-.99,1.15-1.49,2.57-1.49,4.26h0Z"/><path d="M102.02,13.83v10.81c0,3.12,1.23,4.68,3.69,4.68s3.69-1.56,3.69-4.68V13.83h4.35v10.91c0,1.51-.19,2.81-.56,3.91-.36,.98-.99,1.86-1.88,2.65-1.47,1.28-3.34,1.91-5.61,1.91s-4.12-.64-5.59-1.91c-.9-.79-1.54-1.67-1.91-2.65-.36-.88-.54-2.18-.54-3.91V13.83h4.36Z"/><path d="M130.2,17.04l-3.6,1.91c-.57-1.16-1.27-1.74-2.11-1.74-.4,0-.74,.13-1.03,.4-.29,.27-.43,.6-.43,1.02,0,.72,.84,1.44,2.51,2.15,2.31,.99,3.86,1.91,4.66,2.75s1.2,1.97,1.2,3.38c0,1.82-.67,3.34-2.01,4.56-1.3,1.16-2.88,1.74-4.72,1.74-3.16,0-5.4-1.54-6.71-4.62l3.71-1.72c.52,.9,.91,1.48,1.18,1.72,.53,.49,1.16,.73,1.9,.73,1.47,0,2.2-.67,2.2-2.01,0-.77-.57-1.5-1.7-2.17-.44-.22-.88-.43-1.32-.64-.44-.21-.88-.42-1.33-.64-1.26-.62-2.15-1.24-2.67-1.86-.66-.79-.99-1.8-.99-3.04,0-1.64,.56-2.99,1.68-4.06,1.15-1.07,2.54-1.61,4.18-1.61,2.41,0,4.2,1.24,5.38,3.73l.02,.02Z"/><path d="M139.81,17.89v14.78h-4.35v-14.78h-1.86v-4.06h1.86V6.92h4.35v6.9h3.38v4.06h-3.38Z"/><path d="M99.47,37.94v25.63h8.78v4.24h-13.29v-29.86h4.51Z"/><path d="M125.58,48.96h4.37v18.84h-4.37v-1.97c-1.79,1.68-3.72,2.51-5.78,2.51-2.6,0-4.76-.94-6.46-2.82-1.69-1.92-2.53-4.32-2.53-7.19s.84-5.18,2.53-7.06c1.69-1.88,3.8-2.82,6.34-2.82,2.19,0,4.16,.9,5.9,2.71v-2.19h0Zm-10.33,9.35c0,1.81,.48,3.28,1.45,4.41,.99,1.15,2.24,1.72,3.75,1.72,1.61,0,2.91-.55,3.91-1.66,.99-1.15,1.49-2.6,1.49-4.37s-.5-3.22-1.49-4.37c-.99-1.12-2.28-1.68-3.87-1.68-1.5,0-2.75,.57-3.75,1.7-.99,1.15-1.49,2.57-1.49,4.26h0Z"/><path d="M139.8,35.14v16.01c1.74-1.81,3.71-2.71,5.92-2.71,2.54,0,4.65,.95,6.34,2.84,1.69,1.88,2.53,4.23,2.53,7.04s-.85,5.3-2.55,7.19c-1.69,1.88-3.82,2.82-6.4,2.82-2.18,0-4.13-.84-5.84-2.51v1.97h-4.35V35.14h4.35Zm10.35,23.38c0-1.81-.49-3.28-1.47-4.41-.99-1.16-2.24-1.74-3.73-1.74-1.6,0-2.9,.56-3.91,1.68-.99,1.11-1.49,2.55-1.49,4.33s.49,3.29,1.47,4.39c.98,1.12,2.27,1.68,3.87,1.68,1.51,0,2.76-.56,3.75-1.68,1.01-1.13,1.51-2.55,1.51-4.26h0Z"/><path d="M139.8,27.32h-4.35v16.27h4.35V27.32Z"/></g></g></svg>